<?xml version="1.0" encoding="UTF-8"?>
<svg width="400" height="300" viewBox="0 0 400 300" fill="none" xmlns="http://www.w3.org/2000/svg">
  <rect width="400" height="300" fill="#F3F4F6"/>
  <path d="M200 120C186.745 120 176 130.745 176 144C176 157.255 186.745 168 200 168C213.255 168 224 157.255 224 144C224 130.745 213.255 120 200 120ZM200 160C191.164 160 184 152.836 184 144C184 135.164 191.164 128 200 128C208.836 128 216 135.164 216 144C216 152.836 208.836 160 200 160Z" fill="#9CA3AF"/>
  <path d="M240 104H224.832C222.872 104 221.016 103.104 219.792 101.584L214.208 94.416C212.984 92.896 211.128 92 209.168 92H190.832C188.872 92 187.016 92.896 185.792 94.416L180.208 101.584C178.984 103.104 177.128 104 175.168 104H160C151.164 104 144 111.164 144 120V180C144 188.836 151.164 196 160 196H240C248.836 196 256 188.836 256 180V120C256 111.164 248.836 104 240 104ZM248 180C248 184.418 244.418 188 240 188H160C155.582 188 152 184.418 152 180V120C152 115.582 155.582 112 160 112H175.168C179.048 112 182.76 110.208 185.208 107.168L190.792 100C193.24 96.96 196.952 95.168 200.832 95.168H209.168C213.048 95.168 216.76 96.96 219.208 100L224.792 107.168C227.24 110.208 230.952 112 234.832 112H240C244.418 112 248 115.582 248 120V180Z" fill="#9CA3AF"/>
  <path d="M200 140m-4 0a4 4 0 1 0 8 0a4 4 0 1 0 -8 0" fill="#9CA3AF"/>
</svg>